<?xml version="1.0" encoding="UTF-8" standalone="no"?>
<!DOCTYPE svg PUBLIC "-//W3C//DTD SVG 1.1//EN" "http://www.w3.org/Graphics/SVG/1.1/DTD/svg11.dtd">
<svg width="100%" height="100%" viewBox="0 0 1024 226" version="1.1" xmlns="http://www.w3.org/2000/svg" xmlns:xlink="http://www.w3.org/1999/xlink" xml:space="preserve" xmlns:serif="http://www.serif.com/" style="fill-rule:evenodd;clip-rule:evenodd;stroke-linejoin:round;stroke-miterlimit:2;">
    <g transform="matrix(13.1139,0,0,13.1139,-1328.79,-4519.5)">
        <path d="M105.098,361.861C103.872,361.861 102.936,361.512 102.292,360.814C101.648,360.117 101.326,359.116 101.326,357.813L101.326,345.531L103.856,345.531L103.856,357.997C103.856,358.549 103.968,358.947 104.19,359.193C104.412,359.438 104.73,359.561 105.144,359.561C105.558,359.561 105.877,359.438 106.099,359.193C106.321,358.947 106.432,358.549 106.432,357.997L106.432,345.531L108.87,345.531L108.87,357.813C108.87,359.116 108.548,360.117 107.904,360.814C107.26,361.512 106.325,361.861 105.098,361.861Z" style="fill:rgb(255,170,0);fill-rule:nonzero;"/>
        <rect x="110.664" y="345.531" width="2.53" height="16.1" style="fill:rgb(255,170,0);fill-rule:nonzero;"/>
        <path d="M117.058,347.831L114.413,347.831L114.413,345.531L122.233,345.531L122.233,347.831L119.588,347.831L119.588,361.631L117.058,361.631L117.058,347.831Z" style="fill:rgb(255,170,0);fill-rule:nonzero;"/>
        <path d="M126.741,361.861C125.515,361.861 124.587,361.512 123.958,360.814C123.33,360.117 123.015,359.116 123.015,357.813L123.015,356.893L125.407,356.893L125.407,357.997C125.407,359.039 125.844,359.561 126.718,359.561C127.148,359.561 127.474,359.434 127.696,359.181C127.918,358.928 128.029,358.518 128.029,357.951C128.029,357.276 127.876,356.682 127.569,356.168C127.263,355.655 126.695,355.037 125.867,354.317C124.825,353.397 124.096,352.565 123.682,351.821C123.268,351.078 123.061,350.238 123.061,349.303C123.061,348.03 123.383,347.045 124.027,346.347C124.671,345.65 125.607,345.301 126.833,345.301C128.045,345.301 128.961,345.65 129.582,346.347C130.203,347.045 130.513,348.045 130.513,349.349L130.513,350.016L128.121,350.016L128.121,349.188C128.121,348.636 128.014,348.233 127.799,347.98C127.585,347.727 127.27,347.601 126.856,347.601C126.013,347.601 125.591,348.114 125.591,349.142C125.591,349.724 125.749,350.269 126.063,350.775C126.377,351.281 126.948,351.894 127.776,352.615C128.834,353.535 129.563,354.37 129.961,355.122C130.36,355.873 130.559,356.755 130.559,357.767C130.559,359.085 130.234,360.097 129.582,360.803C128.93,361.508 127.983,361.861 126.741,361.861Z" style="fill:rgb(255,170,0);fill-rule:nonzero;"/>
        <path d="M132.008,345.531L135.619,345.531L137.229,357.054L137.275,357.054L138.885,345.531L142.496,345.531L142.496,361.631L140.104,361.631L140.104,349.441L140.058,349.441L138.218,361.631L136.102,361.631L134.262,349.441L134.216,349.441L134.216,361.631L132.008,361.631L132.008,345.531Z" style="fill:rgb(255,170,0);fill-rule:nonzero;"/>
        <path d="M144.382,345.531L146.912,345.531L146.912,361.631L144.382,361.631L144.382,345.531ZM149.396,361.723C148.936,361.723 148.545,361.692 148.223,361.631L148.223,359.331C148.469,359.392 148.745,359.423 149.051,359.423C149.557,359.423 149.933,359.296 150.178,359.043C150.424,358.79 150.546,358.403 150.546,357.882L150.546,345.531L153.076,345.531L153.076,357.813C153.076,359.131 152.774,360.113 152.168,360.757C151.562,361.401 150.638,361.723 149.396,361.723Z" style="fill:rgb(255,170,0);fill-rule:nonzero;"/>
        <g transform="matrix(0.998983,0,0,0.0261638,0.146863,335.594)">
            <rect x="144.382" y="345.531" width="2.53" height="16.1" style="fill:rgb(255,30,0);fill-rule:nonzero;"/>
        </g>
        <g transform="matrix(0.998983,0,0,0.0261638,-33.5729,335.594)">
            <rect x="144.382" y="345.531" width="2.53" height="16.1" style="fill:rgb(255,30,0);fill-rule:nonzero;"/>
        </g>
        <g transform="matrix(0.998983,0,0,0.0261638,6.31344,335.594)">
            <rect x="144.382" y="345.531" width="2.53" height="16.1" style="fill:rgb(255,30,0);fill-rule:nonzero;"/>
        </g>
        <path d="M156.871,347.831L154.226,347.831L154.226,345.531L162.046,345.531L162.046,347.831L159.401,347.831L159.401,361.631L156.871,361.631L156.871,347.831Z" style="fill:rgb(255,170,0);fill-rule:nonzero;"/>
        <path d="M163.265,345.531L170.165,345.531L170.165,347.831L165.795,347.831L165.795,352.086L169.268,352.086L169.268,354.386L165.795,354.386L165.795,359.331L170.165,359.331L170.165,361.631L163.265,361.631L163.265,345.531Z" style="fill:rgb(255,170,0);fill-rule:nonzero;"/>
        <path d="M171.614,345.531L175.363,345.531C176.667,345.531 177.617,345.834 178.215,346.439C178.813,347.045 179.112,347.976 179.112,349.234L179.112,350.223C179.112,351.894 178.56,352.952 177.456,353.397L177.456,353.443C178.07,353.627 178.503,354.002 178.756,354.57C179.009,355.137 179.135,355.896 179.135,356.847L179.135,359.676C179.135,360.136 179.151,360.508 179.181,360.791C179.212,361.075 179.289,361.355 179.411,361.631L176.835,361.631C176.743,361.37 176.682,361.125 176.651,360.895C176.621,360.665 176.605,360.251 176.605,359.653L176.605,356.709C176.605,355.973 176.487,355.459 176.249,355.168C176.011,354.876 175.601,354.731 175.018,354.731L174.144,354.731L174.144,361.631L171.614,361.631L171.614,345.531ZM175.064,352.431C175.57,352.431 175.95,352.3 176.203,352.04C176.456,351.779 176.582,351.342 176.582,350.729L176.582,349.487C176.582,348.904 176.479,348.482 176.272,348.222C176.065,347.961 175.739,347.831 175.294,347.831L174.144,347.831L174.144,352.431L175.064,352.431Z" style="fill:rgb(255,170,0);fill-rule:nonzero;"/>
    </g>
</svg>
