<?xml version="1.0" encoding="UTF-8" standalone="no"?>
<svg
   width="100%"
   height="100%"
   viewBox="0 0 1024 178"
   version="1.1"
   xml:space="preserve"
   style="fill-rule:evenodd;clip-rule:evenodd;stroke-linejoin:round;stroke-miterlimit:2;"
   id="svg6"
   sodipodi:docname="logo-littleletter.svg"
   inkscape:version="1.3 (0e150ed6c4, 2023-07-21)"
   xmlns:inkscape="http://www.inkscape.org/namespaces/inkscape"
   xmlns:sodipodi="http://sodipodi.sourceforge.net/DTD/sodipodi-0.dtd"
   xmlns="http://www.w3.org/2000/svg"
   xmlns:svg="http://www.w3.org/2000/svg"><defs
   id="defs6" /><sodipodi:namedview
   id="namedview6"
   pagecolor="#ffffff"
   bordercolor="#000000"
   borderopacity="0.25"
   inkscape:showpageshadow="2"
   inkscape:pageopacity="0.0"
   inkscape:pagecheckerboard="0"
   inkscape:deskcolor="#d1d1d1"
   inkscape:zoom="1.0196592"
   inkscape:cx="523.21405"
   inkscape:cy="156.42482"
   inkscape:window-width="2592"
   inkscape:window-height="1567"
   inkscape:window-x="0"
   inkscape:window-y="26"
   inkscape:window-maximized="1"
   inkscape:current-layer="g2" />&#10;    <g
   id="ArtBoard1"
   transform="matrix(1,0,0,1,-171,-594)">&#10;        <path
   id="rect1"
   style="fill:none"
   d="M 0,0 H 1365.33 V 1365.33 H 0 Z" />&#10;    </g>&#10;    <g
   transform="matrix(14.7431,0,0,14.7431,-1841.55,-7527.66)"
   id="g6">&#10;        <g
   id="g5">&#10;            <g
   id="g4">&#10;                <g
   transform="matrix(1,0,0,1,123.581,522.425)"
   id="g1">&#10;                    <path
   d="m 1.328,0 v -11.168 h 1.28 V -1.12 h 4.24 V 0 Z m 7.7439858,-10.256 q -0.752,0 -0.752,-0.656 v -0.256 q 0,-0.656 0.752,-0.656 0.752,0 0.752,0.656 v 0.256 q 0,0.656 -0.752,0.656 z m -0.608,2 h 1.216 V 0 h -1.216 z M 13.775996,0 q -0.656,0 -0.96,-0.288 -0.288,-0.304 -0.288,-0.96 v -5.936 h -1.216 v -1.072 h 0.72 q 0.368,0 0.48,-0.176 0.128,-0.192 0.128,-0.56 v -1.536 h 1.104 v 2.272 h 1.6 v 1.072 h -1.6 v 6.112 h 1.52 V 0 Z"
   id="text1"
   style="font-stretch:condensed;font-size:16px;font-family:IBMPlexSansCond-Regular, 'IBM Plex Sans Condensed', sans-serif;fill:#1371c3"
   aria-label="Lit" />&#10;                </g>&#10;                <g
   transform="matrix(1,0,0,1,139.405,522.425)"
   id="g2">&#10;                    <path
   d="M 2.88,0 Q 2.224,0 1.92,-0.288 1.632,-0.592 1.632,-1.248 V -7.184 H 0.416 v -1.072 h 0.72 q 0.368,0 0.48,-0.176 0.128,-0.192 0.128,-0.56 v -1.536 h 1.104 v 2.272 h 1.6 v 1.072 h -1.6 v 6.112 h 1.52 V 0 Z m 4.6720127,0 q -0.656,0 -0.96,-0.288 -0.288,-0.304 -0.288,-0.96 V -11.84 h 1.216 v 10.768 h 1.04 V 0 Z m 5.5199963,0.192 q -0.72,0 -1.344,-0.24 -0.624,-0.24 -1.072,-0.768 -0.448,-0.528 -0.7040005,-1.344 -0.256,-0.816 -0.256,-1.968 0,-1.152 0.256,-1.968 0.2560005,-0.816 0.7040005,-1.344 0.448,-0.528 1.072,-0.768 0.624,-0.24 1.344,-0.24 0.72,0 1.312,0.24 0.608,0.24 1.024,0.768 0.416,0.528 0.64,1.344 0.24,0.816 0.24,1.968 v 0.304 h -5.296 v 0.528 q 0,1.216 0.544,1.824 0.56,0.592 1.536,0.592 0.832,0 1.36,-0.352 0.528,-0.368 0.832,-1.088 l 0.832,0.608 q -0.384,0.848 -1.136,1.376 -0.736,0.528 -1.888,0.528 z m 0,-7.616 q -0.992,0 -1.536,0.624 -0.544,0.624 -0.544,1.84 v 0.208 h 4 V -4.96 q 0,-2.464 -1.92,-2.464 z M 18.288022,0 v -11.168 h 1.28 V -1.12 h 4.24 V 0 Z"
   id="text2"
   style="font-stretch:condensed;font-size:16px;font-family:IBMPlexSansCond-Regular, 'IBM Plex Sans Condensed', sans-serif;fill:#1371c3"
   aria-label="tleL" />&#10;                </g>&#10;                <g
   transform="matrix(1,0,0,1,163.501,522.425)"
   id="g3">&#10;                    <g
   id="text3"
   style="font-stretch:condensed;font-size:16px;font-family:IBMPlexSansCond-Regular, 'IBM Plex Sans Condensed', sans-serif;fill:#1371c3"
   aria-label="etter"><path
     d="m 4.032,0.192 q -0.72,0 -1.344,-0.24 Q 2.064,-0.288 1.616,-0.816 1.168,-1.344 0.912,-2.16 0.656,-2.976 0.656,-4.128 q 0,-1.152 0.256,-1.968 0.256,-0.816 0.704,-1.344 0.448,-0.528 1.072,-0.768 0.624,-0.24 1.344,-0.24 0.72,0 1.312,0.24 0.608,0.24 1.024,0.768 0.416,0.528 0.64,1.344 0.24,0.816 0.24,1.968 v 0.304 H 1.952 v 0.528 q 0,1.216 0.544,1.824 0.56,0.592 1.536,0.592 0.832,0 1.36,-0.352 Q 5.92,-1.6 6.224,-2.32 l 0.832,0.608 Q 6.672,-0.864 5.92,-0.336 5.184,0.192 4.032,0.192 Z m 0,-7.616 q -0.992,0 -1.536,0.624 -0.544,0.624 -0.544,1.84 v 0.208 h 4 V -4.96 q 0,-2.464 -1.92,-2.464 z M 10.800013,0 q -0.656,0 -0.9599996,-0.288 -0.288,-0.304 -0.288,-0.96 v -5.936 h -1.216 v -1.072 h 0.72 q 0.368,0 0.48,-0.176 0.128,-0.192 0.128,-0.56 v -1.536 h 1.1039996 v 2.272 h 1.6 v 1.072 h -1.6 v 6.112 h 1.52 V 0 Z"
     id="path6" /><path
     d="m 15.728,0 q -0.656,0 -0.96,-0.288 -0.288,-0.304 -0.288,-0.96 v -5.936 h -1.216 v -1.072 h 0.72 q 0.368,0 0.48,-0.176 0.128,-0.192 0.128,-0.56 v -1.536 h 1.104 v 2.272 h 1.6 v 1.072 h -1.6 v 6.112 h 1.52 V 0 Z"
     id="path7" /><path
     d="m 21.968012,0.192 q -0.72,0 -1.344,-0.24 -0.624,-0.24 -1.072,-0.768 -0.448,-0.528 -0.704,-1.344 -0.256,-0.816 -0.256,-1.968 0,-1.152 0.256,-1.968 0.256,-0.816 0.704,-1.344 0.448,-0.528 1.072,-0.768 0.624,-0.24 1.344,-0.24 0.72,0 1.312,0.24 0.608,0.24 1.024,0.768 0.416,0.528 0.64,1.344 0.24,0.816 0.24,1.968 v 0.304 h -5.296 v 0.528 q 0,1.216 0.544,1.824 0.56,0.592 1.536,0.592 0.832,0 1.36,-0.352 0.528,-0.368 0.832,-1.088 l 0.832,0.608 q -0.384,0.848 -1.136,1.376 -0.736,0.528 -1.888,0.528 z m 0,-7.616 q -0.992,0 -1.536,0.624 -0.544,0.624 -0.544,1.84 v 0.208 h 4 V -4.96 q 0,-2.464 -1.92,-2.464 z M 27.072026,0 v -8.256 h 1.216 v 1.536 h 0.16 q 0.208,-0.72 0.704,-1.12 0.512,-0.416 1.328,-0.416 h 0.448 v 1.232 h -0.8 q -0.864,0 -1.36,0.384 -0.48,0.384 -0.48,1.152 V 0 Z"
     id="path8" /></g>&#10;                </g>&#10;            </g>&#10;        </g>&#10;    </g>&#10;</svg>
